<svg xmlns="http://www.w3.org/2000/svg" style="display:none">
  <symbol id="icon-logo" viewBox="0 0 40 40">
    <rect width="40" height="40" rx="10" fill="#2563EB"/>
    <path fill="none" d="M29.4188 18.9224C29.5978 18.8434 29.7498 18.7136 29.8558 18.5492C29.9617 18.3847 30.0172 18.1927 30.0151 17.9971C30.0131 17.8014 29.9537 17.6107 29.8444 17.4484C29.735 17.2862 29.5804 17.1596 29.3998 17.0844L20.8288 13.1804C20.5683 13.0615 20.2852 13 19.9988 13C19.7124 13 19.4294 13.0615 19.1688 13.1804L10.5988 17.0804C10.4208 17.1583 10.2693 17.2865 10.163 17.4492C10.0566 17.6119 10 17.802 10 17.9964C10 18.1907 10.0566 18.3809 10.163 18.5435C10.2693 18.7062 10.4208 18.8344 10.5988 18.9124L19.1688 22.8204C19.4294 22.9392 19.7124 23.0007 19.9988 23.0007C20.2852 23.0007 20.5683 22.9392 20.8288 22.8204L29.4188 18.9224Z" stroke="white" stroke-width="2" stroke-linecap="round" stroke-linejoin="round"/>
    <path fill="none" d="M29.9988 18.0004V24.0004" stroke="white" stroke-width="2" stroke-linecap="round" stroke-linejoin="round"/>
    <path fill="none" d="M13.9988 20.5004V24.0004C13.9988 24.796 14.6309 25.5591 15.7561 26.1217C16.8814 26.6843 18.4075 27.0004 19.9988 27.0004C21.5901 27.0004 23.1162 26.6843 24.2414 26.1217C25.3666 25.5591 25.9988 24.796 25.9988 24.0004V20.5004" stroke="white" stroke-width="2" stroke-linecap="round" stroke-linejoin="round"/>
  </symbol>


<symbol id="icon-explore" viewBox="0 0 49 49">
<path fill="none" d="M47 47L36.125 36.125M42 22C42 33.0457 33.0457 42 22 42C10.9543 42 2 33.0457 2 22C2 10.9543 10.9543 2 22 2C33.0457 2 42 10.9543 42 22Z" stroke="#2563EB" stroke-width="4" stroke-linecap="round" stroke-linejoin="round"/>
</symbol>

<symbol id="icon-learn" viewBox="0 0 54 49">
<path fill="none" d="M17 47H37M27 37V47M7 2H47C49.7614 2 52 4.23858 52 7V32C52 34.7614 49.7614 37 47 37H7C4.23858 37 2 34.7614 2 32V7C2 4.23858 4.23858 2 7 2Z" stroke="#2563EB" stroke-width="4" stroke-linecap="round" stroke-linejoin="round"/>
</symbol>

<symbol id="icon-earn" viewBox="0 0 50 50">
<path d="M15 40L25 32.375L35 40L31.25 27.625L41.25 20.5H29L25 7.5L21 20.5H8.75L18.75 27.625L15 40ZM25 50C21.5417 50 18.2917 49.3437 15.25 48.0312C12.2083 46.7187 9.5625 44.9375 7.3125 42.6875C5.0625 40.4375 3.28125 37.7917 1.96875 34.75C0.65625 31.7083 0 28.4583 0 25C0 21.5417 0.65625 18.2917 1.96875 15.25C3.28125 12.2083 5.0625 9.5625 7.3125 7.3125C9.5625 5.0625 12.2083 3.28125 15.25 1.96875C18.2917 0.65625 21.5417 0 25 0C28.4583 0 31.7083 0.65625 34.75 1.96875C37.7917 3.28125 40.4375 5.0625 42.6875 7.3125C44.9375 9.5625 46.7187 12.2083 48.0312 15.25C49.3437 18.2917 50 21.5417 50 25C50 28.4583 49.3437 31.7083 48.0312 34.75C46.7187 37.7917 44.9375 40.4375 42.6875 42.6875C40.4375 44.9375 37.7917 46.7187 34.75 48.0312C31.7083 49.3437 28.4583 50 25 50Z" fill="#2563EB"/>
</symbol>

<symbol id="icon-star" viewBox="0 0 60 60">
<path d="M20 45L30 37.375L40 45L36.25 32.625L46.25 25.5H34L30 12.5L26 25.5H13.75L23.75 32.625L20 45ZM30 55C26.5417 55 23.2917 54.3437 20.25 53.0312C17.2083 51.7187 14.5625 49.9375 12.3125 47.6875C10.0625 45.4375 8.28125 42.7917 6.96875 39.75C5.65625 36.7083 5 33.4583 5 30C5 26.5417 5.65625 23.2917 6.96875 20.25C8.28125 17.2083 10.0625 14.5625 12.3125 12.3125C14.5625 10.0625 17.2083 8.28125 20.25 6.96875C23.2917 5.65625 26.5417 5 30 5C33.4583 5 36.7083 5.65625 39.75 6.96875C42.7917 8.28125 45.4375 10.0625 47.6875 12.3125C49.9375 14.5625 51.7187 17.2083 53.0312 20.25C54.3437 23.2917 55 26.5417 55 30C55 33.4583 54.3437 36.7083 53.0312 39.75C51.7187 42.7917 49.9375 45.4375 47.6875 47.6875C45.4375 49.9375 42.7917 51.7187 39.75 53.0312C36.7083 54.3437 33.4583 55 30 55Z" fill="#2563EB"/>
</symbol>

<symbol id="icon-dashboard" viewBox="0 0 24 24" fill="none">
<mask id="dashboard-mask-1" fill="white">
<rect width="11.0002" height="7.99998" rx="1"/>
</mask>
<rect width="11.0002" height="7.99998" rx="1" stroke="currentColor" stroke-width="4" mask="url(#dashboard-mask-1)"/>
<mask id="dashboard-mask-2" fill="white">
<rect x="12.9998" y="16" width="11.0002" height="7.99998" rx="1"/>
</mask>
<rect x="12.9998" y="16" width="11.0002" height="7.99998" rx="1" stroke="currentColor" stroke-width="4" mask="url(#dashboard-mask-2)"/>
<mask id="dashboard-mask-3" fill="white">
<rect y="9.99998" width="11.0002" height="14" rx="1"/>
</mask>
<rect y="9.99998" width="11.0002" height="14" rx="1" stroke="currentColor" stroke-width="4" mask="url(#dashboard-mask-3)"/>
<mask id="dashboard-mask-4" fill="white">
<rect x="12.9998" width="11.0002" height="14" rx="1"/>
</mask>
<rect x="12.9998" width="11.0002" height="14" rx="1" stroke="currentColor" stroke-width="4" mask="url(#dashboard-mask-4)"/>
</symbol>



<symbol id="icon-interactive" viewBox="0 0 30 30">
<path fill="none" d="M6.75716 2.97147L6.8454 5.4723C6.86101 5.91447 6.70032 6.34474 6.39868 6.66843C6.09705 6.99213 5.67919 7.18275 5.23701 7.19835L2.73618 7.28659M17.7412 6.75714L15.2403 6.84538C14.7982 6.86098 14.3679 6.70029 14.0442 6.39866C13.7205 6.09703 13.5299 5.67916 13.5143 5.23699L13.426 2.73616M13.9555 17.7411L13.8673 15.2403C13.8516 14.7981 14.0123 14.3679 14.314 14.0442C14.6156 13.7205 15.0335 13.5299 15.4756 13.5143L17.9765 13.426M2.97149 13.9555L5.47232 13.8672C5.9145 13.8516 6.34476 14.0123 6.66845 14.3139C6.99215 14.6156 7.18277 15.0334 7.19837 15.4756L7.28661 17.9765" stroke="#2563EB" stroke-width="3" stroke-linecap="round" stroke-linejoin="round"/>
<path d="M11.2593 11.2593L18.242 28.0198L20.721 20.721L28.0198 18.242L11.2593 11.2593Z" fill="#2563EB"/>
<path fill="none" d="M21.1358 21.1358L27.0617 27.0617M11.2593 11.2593L18.242 28.0198L20.721 20.721L28.0198 18.242L11.2593 11.2593Z" stroke="#2563EB" stroke-width="3.5" stroke-linecap="round" stroke-linejoin="round"/>
</symbol>

<symbol id="icon-quiz" viewBox="0 0 32 36" fill="none">
<path d="M12.4444 12.4445H24M12.4444 17.7778H24M12.4444 23.1111H24M8 12.4445H8.00889M8 17.7778H8.00889M8 23.1111H8.00889" stroke="#2563EB" stroke-width="3.5" stroke-linecap="round" stroke-linejoin="round"/>
<rect x="1.5" y="1.5" width="29" height="32.5556" rx="3.5" stroke="#2563EB" stroke-width="3"/>
</symbol>


<symbol id="icon-feedback" viewBox="0 0 27 27">
<path fill="none" d="M25.5 17.5C25.5 18.2072 25.219 18.8855 24.719 19.3856C24.2189 19.8857 23.5406 20.1667 22.8333 20.1667H6.83333L1.5 25.5V4.16667C1.5 3.45942 1.78095 2.78115 2.28105 2.28105C2.78115 1.78095 3.45942 1.5 4.16667 1.5H22.8333C23.5406 1.5 24.2189 1.78095 24.719 2.28105C25.219 2.78115 25.5 3.45942 25.5 4.16667V17.5Z" stroke="#2563EB" stroke-width="3" stroke-linecap="round" stroke-linejoin="round"/>
</symbol>

<symbol id="icon-progress" viewBox="0 0 32 32">
<g clip-path="url(#clip-progress)">
<path fill="none" d="M1.33325 16C1.33325 16 6.66658 5.33334 15.9999 5.33334C25.3333 5.33334 30.6666 16 30.6666 16C30.6666 16 25.3333 26.6667 15.9999 26.6667C6.66658 26.6667 1.33325 16 1.33325 16Z" stroke="#2563EB" stroke-width="3" stroke-linecap="round" stroke-linejoin="round"/>
<path fill="none" d="M15.9999 20C18.2091 20 19.9999 18.2091 19.9999 16C19.9999 13.7909 18.2091 12 15.9999 12C13.7908 12 11.9999 13.7909 11.9999 16C11.9999 18.2091 13.7908 20 15.9999 20Z" stroke="#2563EB" stroke-width="3" stroke-linecap="round" stroke-linejoin="round"/>
</g>
<defs><clipPath id="clip-progress"><rect width="32" height="32" fill="white"/></clipPath></defs>
</symbol>

<symbol id="icon-token" viewBox="0 0 32 32">
<path d="M10.6667 24L16.0001 19.9333L21.3334 24L19.3334 17.4L24.6667 13.6H18.1334L16.0001 6.66666L13.8667 13.6H7.33341L12.6667 17.4L10.6667 24ZM16.0001 29.3333C14.1556 29.3333 12.4223 28.9833 10.8001 28.2833C9.17786 27.5833 7.76675 26.6333 6.56675 25.4333C5.36675 24.2333 4.41675 22.8222 3.71675 21.2C3.01675 19.5778 2.66675 17.8444 2.66675 16C2.66675 14.1555 3.01675 12.4222 3.71675 10.8C4.41675 9.17777 5.36675 7.76666 6.56675 6.56666C7.76675 5.36666 9.17786 4.41666 10.8001 3.71666C12.4223 3.01666 14.1556 2.66666 16.0001 2.66666C17.8445 2.66666 19.5779 3.01666 21.2001 3.71666C22.8223 4.41666 24.2334 5.36666 25.4334 6.56666C26.6334 7.76666 27.5834 9.17777 28.2834 10.8C28.9834 12.4222 29.3334 14.1555 29.3334 16C29.3334 17.8444 28.9834 19.5778 28.2834 21.2C27.5834 22.8222 26.6334 24.2333 25.4334 25.4333C24.2334 26.6333 22.8223 27.5833 21.2001 28.2833C19.5779 28.9833 17.8445 29.3333 16.0001 29.3333Z" fill="#2563EB"/>
</symbol>

<symbol id="icon-user" viewBox="0 0 24 24">
<path fill="none" stroke="currentColor" stroke-width="1.5" stroke-linecap="round" stroke-linejoin="round" d="M17.982 18.725A7.488 7.488 0 0 0 12 15.75a7.488 7.488 0 0 0-5.982 2.975m11.963 0a9 9 0 1 0-11.963 0m11.963 0A8.966 8.966 0 0 1 12 21a8.966 8.966 0 0 1-5.982-2.275M15 9.75a3 3 0 1 1-6 0 3 3 0 0 1 6 0Z"/>
</symbol>

<symbol id="icon-lock" viewBox="0 0 24 24">
<path fill="none" stroke="currentColor" stroke-width="1.5" stroke-linecap="round" stroke-linejoin="round" d="M16.5 10.5V6.75a4.5 4.5 0 1 0-9 0v3.75m-.75 11.25h10.5a2.25 2.25 0 0 0 2.25-2.25v-6.75a2.25 2.25 0 0 0-2.25-2.25H6.75a2.25 2.25 0 0 0-2.25 2.25v6.75a2.25 2.25 0 0 0 2.25 2.25Z"/>
</symbol>

<symbol id="icon-eye" viewBox="0 0 24 24">
<path fill="none" stroke="currentColor" stroke-width="1.5" stroke-linecap="round" stroke-linejoin="round" d="M2.036 12.322a1.012 1.012 0 0 1 0-.639C3.423 7.51 7.36 4.5 12 4.5c4.638 0 8.573 3.007 9.963 7.178.07.207.07.431 0 .639C20.577 16.49 16.64 19.5 12 19.5c-4.638 0-8.573-3.007-9.963-7.178Z"/>
<path fill="none" stroke="currentColor" stroke-width="1.5" stroke-linecap="round" stroke-linejoin="round" d="M15 12a3 3 0 1 1-6 0 3 3 0 0 1 6 0Z"/>
</symbol>

<symbol id="icon-eye-off" viewBox="0 0 24 24">
<path fill="none" stroke="currentColor" stroke-width="1.5" stroke-linecap="round" stroke-linejoin="round" d="M3.98 8.223A10.477 10.477 0 0 0 1.934 12C3.226 16.338 7.244 19.5 12 19.5c.993 0 1.953-.138 2.863-.395M6.228 6.228A10.451 10.451 0 0 1 12 4.5c4.756 0 8.773 3.162 10.065 7.498a10.522 10.522 0 0 1-4.293 5.774M6.228 6.228 3 3m3.228 3.228 3.65 3.65m7.894 7.894L21 21m-3.228-3.228-3.65-3.65m0 0a3 3 0 1 0-4.243-4.243m4.242 4.242L9.88 9.88"/>
</symbol>

<symbol id="icon-mail" viewBox="0 0 19 16" fill="none" xmlns="http://www.w3.org/2000/svg">
<path d="M17.6667 2.66667C17.6667 1.75 16.9167 1 16 1H2.66667C1.75 1 1 1.75 1 2.66667M17.6667 2.66667V12.6667C17.6667 13.5833 16.9167 14.3333 16 14.3333H2.66667C1.75 14.3333 1 13.5833 1 12.6667V2.66667M17.6667 2.66667L9.33333 8.5L1 2.66667" stroke="#99A1AF" stroke-width="2" stroke-linecap="round" stroke-linejoin="round"/>
</symbol>


<symbol id="icon-phone" viewBox="0 0 19 19">
<path d="M17.5734 13.4334V15.9334C17.5744 16.1655 17.5268 16.3952 17.4339 16.6079C17.3409 16.8205 17.2045 17.0114 17.0335 17.1683C16.8625 17.3252 16.6606 17.4447 16.4407 17.519C16.2209 17.5934 15.9879 17.621 15.7568 17.6001C13.1925 17.3214 10.7293 16.4452 8.5651 15.0417C6.55162 13.7623 4.84454 12.0552 3.5651 10.0417C2.15675 7.86775 1.2803 5.39258 1.00676 2.81675C0.985939 2.5863 1.01333 2.35405 1.08718 2.13477C1.16104 1.91549 1.27974 1.71399 1.43574 1.5431C1.59173 1.37221 1.7816 1.23567 1.99326 1.14218C2.20491 1.04869 2.43371 1.0003 2.6651 1.00008H5.1651C5.56952 0.9961 5.96159 1.13931 6.26823 1.40302C6.57487 1.66674 6.77516 2.03295 6.83176 2.43341C6.93728 3.23347 7.13297 4.01902 7.4151 4.77508C7.52722 5.07335 7.55148 5.39751 7.48502 5.70915C7.41856 6.02079 7.26415 6.30684 7.0401 6.53341L5.98176 7.59175C7.16806 9.67804 8.89548 11.4055 10.9818 12.5917L12.0401 11.5334C12.2667 11.3094 12.5527 11.155 12.8644 11.0885C13.176 11.022 13.5002 11.0463 13.7984 11.1584C14.5545 11.4405 15.34 11.6362 16.1401 11.7417C16.5449 11.7989 16.9146 12.0028 17.1789 12.3147C17.4432 12.6266 17.5836 13.0247 17.5734 13.4334Z" stroke="#99A1AF" stroke-width="2" stroke-linecap="round" stroke-linejoin="round"/>
</symbol>

  <symbol id="icon-notif-bell" viewBox="0 0 24 24" fill="none">
    <path fill="none" stroke="currentColor" stroke-width="1.5" stroke-linecap="round" stroke-linejoin="round" d="M14.857 17.082a23.848 23.848 0 0 0 5.454-1.31A8.967 8.967 0 0 1 18 9.75V9A6 6 0 0 0 6 9v.75a8.967 8.967 0 0 1-2.312 6.022c1.733.64 3.56 1.085 5.455 1.31m5.714 0a24.255 24.255 0 0 1-5.714 0m5.714 0a3 3 0 1 1-5.714 0"/>
  </symbol>

  <symbol id="icon-courses" viewBox="0 0 16 19" fill="none">
    <path fill="none" d="M1 15.5833C1 15.0308 1.21949 14.5009 1.61019 14.1102C2.00089 13.7195 2.5308 13.5 3.08333 13.5H14.3333M1 15.5833C1 16.1359 1.21949 16.6658 1.61019 17.0565C2.00089 17.4472 2.5308 17.6667 3.08333 17.6667H14.3333V1H3.08333C2.5308 1 2.00089 1.21949 1.61019 1.61019C1.21949 2.00089 1 2.5308 1 3.08333V15.5833Z" stroke="currentColor" stroke-width="2" stroke-linecap="round" stroke-linejoin="round"/>
  </symbol>

  <symbol id="icon-ewallet" viewBox="0 0 19 17" fill="none">
    <path fill="none" d="M6 6.83333L9.33333 10.1667L12.6667 6.83333M2.66667 1H16C16.442 1 16.866 1.17559 17.1785 1.48816C17.4911 1.80072 17.6667 2.22464 17.6667 2.66667V7.66667C17.6667 9.8768 16.7887 11.9964 15.2259 13.5592C13.6631 15.122 11.5435 16 9.33333 16C8.23898 16 7.15535 15.7845 6.1443 15.3657C5.13326 14.9469 4.2146 14.333 3.44078 13.5592C1.87797 11.9964 1 9.8768 1 7.66667V2.66667C1 2.22464 1.17559 1.80072 1.48816 1.48816C1.80072 1.17559 2.22464 1 2.66667 1Z" stroke="currentColor" stroke-width="2" stroke-linecap="round" stroke-linejoin="round"/>
  </symbol>


  <symbol id="icon-profile" viewBox="0 0 20 20" fill="none">
    <path fill="none" d="M16.6666 17.5V15.8333C16.6666 14.9493 16.3154 14.1014 15.6903 13.4763C15.0652 12.8512 14.2173 12.5 13.3333 12.5H6.66659C5.78253 12.5 4.93468 12.8512 4.30956 13.4763C3.68444 14.1014 3.33325 14.9493 3.33325 15.8333V17.5M13.3333 5.83333C13.3333 7.67428 11.8409 9.16667 9.99992 9.16667C8.15897 9.16667 6.66659 7.67428 6.66659 5.83333C6.66659 3.99238 8.15897 2.5 9.99992 2.5C11.8409 2.5 13.3333 3.99238 13.3333 5.83333Z" stroke="currentColor" stroke-width="2" stroke-linecap="round" stroke-linejoin="round"/>
    <g clip-path="url(#clip-profile)">
      <path fill="none" d="M15.9994 16C16.5517 16 16.9994 15.5523 16.9994 15C16.9994 14.4478 16.5517 14 15.9994 14C15.4471 14 14.9994 14.4478 14.9994 15C14.9994 15.5523 15.4471 16 15.9994 16Z" stroke="currentColor" stroke-linecap="round" stroke-linejoin="round"/>
      <path fill="none" d="M18.4661 16C18.4217 16.1006 18.4085 16.2121 18.4281 16.3202C18.4477 16.4284 18.4993 16.5281 18.5761 16.6067L18.5961 16.6267C18.6581 16.6886 18.7073 16.7621 18.7408 16.8431C18.7744 16.924 18.7916 17.0108 18.7916 17.0984C18.7916 17.186 18.7744 17.2727 18.7408 17.3537C18.7073 17.4346 18.6581 17.5081 18.5961 17.57C18.5342 17.632 18.4607 17.6812 18.3797 17.7147C18.2988 17.7483 18.212 17.7656 18.1244 17.7656C18.0368 17.7656 17.9501 17.7483 17.8691 17.7147C17.7882 17.6812 17.7147 17.632 17.6528 17.57L17.6328 17.55C17.5542 17.4732 17.4544 17.4216 17.3463 17.402C17.2382 17.3824 17.1266 17.3957 17.0261 17.44C16.9275 17.4823 16.8434 17.5525 16.7842 17.6419C16.725 17.7313 16.6932 17.8361 16.6928 17.9434V18C16.6928 18.1769 16.6225 18.3464 16.4975 18.4714C16.3725 18.5965 16.2029 18.6667 16.0261 18.6667C15.8493 18.6667 15.6797 18.5965 15.5547 18.4714C15.4297 18.3464 15.3594 18.1769 15.3594 18V17.97C15.3568 17.8597 15.3211 17.7527 15.2569 17.6629C15.1927 17.5732 15.103 17.5048 14.9994 17.4667C14.8989 17.4223 14.7874 17.4091 14.6792 17.4287C14.5711 17.4483 14.4713 17.4999 14.3928 17.5767L14.3728 17.5967C14.3108 17.6587 14.2373 17.7079 14.1564 17.7414C14.0755 17.775 13.9887 17.7922 13.9011 17.7922C13.8135 17.7922 13.7267 17.775 13.6458 17.7414C13.5649 17.7079 13.4913 17.6587 13.4294 17.5967C13.3674 17.5348 13.3183 17.4613 13.2847 17.3803C13.2512 17.2994 13.2339 17.2127 13.2339 17.125C13.2339 17.0374 13.2512 16.9507 13.2847 16.8697C13.3183 16.7888 13.3674 16.7153 13.4294 16.6534L13.4494 16.6334C13.5263 16.5548 13.5778 16.455 13.5974 16.3469C13.617 16.2388 13.6038 16.1272 13.5594 16.0267C13.5172 15.9281 13.447 15.844 13.3576 15.7848C13.2682 15.7256 13.1634 15.6938 13.0561 15.6934H12.9994C12.8226 15.6934 12.6531 15.6231 12.528 15.4981C12.403 15.3731 12.3328 15.2035 12.3328 15.0267C12.3328 14.8499 12.403 14.6803 12.528 14.5553C12.6531 14.4303 12.8226 14.36 12.9994 14.36H13.0294C13.1398 14.3575 13.2468 14.3217 13.3365 14.2575C13.4263 14.1933 13.4947 14.1036 13.5328 14C13.5771 13.8995 13.5904 13.788 13.5708 13.6798C13.5512 13.5717 13.4996 13.4719 13.4228 13.3934L13.4028 13.3734C13.3408 13.3115 13.2916 13.2379 13.2581 13.157C13.2245 13.0761 13.2072 12.9893 13.2072 12.9017C13.2072 12.8141 13.2245 12.7273 13.2581 12.6464C13.2916 12.5655 13.3408 12.492 13.4028 12.43C13.4647 12.3681 13.5382 12.3189 13.6191 12.2853C13.7001 12.2518 13.7868 12.2345 13.8744 12.2345C13.962 12.2345 14.0488 12.2518 14.1297 12.2853C14.2107 12.3189 14.2842 12.3681 14.3461 12.43L14.3661 12.45C14.4447 12.5269 14.5444 12.5784 14.6526 12.598C14.7607 12.6176 14.8722 12.6044 14.9728 12.56H14.9994C15.098 12.5178 15.1821 12.4476 15.2413 12.3582C15.3006 12.2688 15.3323 12.164 15.3328 12.0567V12C15.3328 11.8232 15.403 11.6537 15.528 11.5286C15.653 11.4036 15.8226 11.3334 15.9994 11.3334C16.1762 11.3334 16.3458 11.4036 16.4708 11.5286C16.5959 11.6537 16.6661 11.8232 16.6661 12V12.03C16.6665 12.1373 16.6983 12.2421 16.7575 12.3315C16.8168 12.421 16.9008 12.4911 16.9994 12.5334C17.1 12.5777 17.2115 12.591 17.3196 12.5714C17.4278 12.5518 17.5275 12.5002 17.6061 12.4234L17.6261 12.4034C17.688 12.3414 17.7615 12.2922 17.8425 12.2587C17.9234 12.2251 18.0102 12.2078 18.0978 12.2078C18.1854 12.2078 18.2721 12.2251 18.3531 12.2587C18.434 12.2922 18.5075 12.3414 18.5694 12.4034C18.6314 12.4653 18.6806 12.5388 18.7141 12.6197C18.7477 12.7007 18.765 12.7874 18.765 12.875C18.765 12.9627 18.7477 13.0494 18.7141 13.1303C18.6806 13.2113 18.6314 13.2848 18.5694 13.3467L18.5494 13.3667C18.4726 13.4453 18.421 13.545 18.4014 13.6532C18.3818 13.7613 18.3951 13.8728 18.4394 13.9734V14C18.4817 14.0986 18.5518 14.1827 18.6413 14.2419C18.7307 14.3012 18.8355 14.3329 18.9428 14.3334H18.9994C19.1762 14.3334 19.3458 14.4036 19.4708 14.5286C19.5959 14.6537 19.6661 14.8232 19.6661 15C19.6661 15.1769 19.5959 15.3464 19.4708 15.4714C19.3458 15.5965 19.1762 15.6667 18.9994 15.6667H18.9694C18.8622 15.6671 18.7574 15.6989 18.6679 15.7581C18.5785 15.8174 18.5084 15.9015 18.4661 16Z" stroke="currentColor" stroke-linecap="round" stroke-linejoin="round"/>
    </g>
    <defs><clipPath id="clip-profile"><rect width="8" height="8" fill="none" transform="translate(11.9995 11)"/></clipPath></defs>
  </symbol>

  <symbol id="icon-logout" viewBox="0 0 20 20" fill="none">
    <path fill="none" d="M7.5 17.5H4.16667C3.72464 17.5 3.30072 17.3244 2.98816 17.0118C2.67559 16.6993 2.5 16.2754 2.5 15.8333V4.16667C2.5 3.72464 2.67559 3.30072 2.98816 2.98816C3.30072 2.67559 3.72464 2.5 4.16667 2.5H7.5M13.3333 14.1667L17.5 10M17.5 10L13.3333 5.83333M17.5 10H7.5" stroke="currentColor" stroke-width="2" stroke-linecap="round" stroke-linejoin="round"/>
  </symbol>

  <symbol id="icon-courses-progress" viewBox="0 0 30 27" fill="none">
    <path fill="none" d="M14.8333 6.83333C14.8333 5.41885 14.2714 4.06229 13.2712 3.0621C12.271 2.0619 10.9145 1.5 9.5 1.5H1.5V21.5H10.8333C11.8942 21.5 12.9116 21.9214 13.6618 22.6716C14.4119 23.4217 14.8333 24.4391 14.8333 25.5M14.8333 6.83333V25.5M14.8333 6.83333C14.8333 5.41885 15.3952 4.06229 16.3954 3.0621C17.3956 2.0619 18.7522 1.5 20.1667 1.5H28.1667V21.5H18.8333C17.7725 21.5 16.7551 21.9214 16.0049 22.6716C15.2548 23.4217 14.8333 24.4391 14.8333 25.5" stroke="currentColor" stroke-width="3" stroke-linecap="round" stroke-linejoin="round"/>
  </symbol>

  <symbol id="icon-token-balance" viewBox="0 0 28 23" fill="none">
    <path d="M8.25213 5.63636V10H7.32955V6.51207H7.30398L6.30469 7.13849V6.32031L7.38494 5.63636H8.25213Z" fill="currentColor"/>
    <circle cx="7.5" cy="7.5" r="6.5" stroke="currentColor" stroke-width="2"/>
    <path d="M19.9738 11.5365L16.8883 14.622L16.2359 13.9697L18.7022 11.5033L18.6842 11.4852L17.5346 11.2216L18.1132 10.643L19.3606 10.9233L19.9738 11.5365Z" fill="currentColor"/>
    <path fill="none" d="M16.1187 6.54199C17.3251 6.21558 18.6 6.24387 19.7907 6.62348C20.9814 7.0031 22.0375 7.71793 22.8323 8.68236C23.6272 9.64679 24.1272 10.8199 24.2724 12.0612C24.4176 13.3025 24.2018 14.5594 23.651 15.6812C23.1002 16.8031 22.2376 17.7423 21.1666 18.3865C20.0956 19.0306 18.8617 19.3524 17.6125 19.3132C16.3634 19.274 15.152 18.8755 14.1235 18.1655C13.095 17.4554 12.293 16.4639 11.8136 15.3098" stroke="currentColor" stroke-width="2"/>
  </symbol>

  <symbol id="icon-arrow-right" viewBox="0 0 24 24" fill="none">
    <path stroke="currentColor" stroke-width="1.5" stroke-linecap="round" stroke-linejoin="round" d="M17.25 8.25 21 12m0 0-3.75 3.75M21 12H3"/>
  </symbol>

  <symbol id="icon-earn-arrow" viewBox="0 0 19 22" fill="none">
    <path d="M17.6667 9.33333L9.33333 1L1 9.33333M17.6667 21L9.33333 12.6667L1 21" stroke="#10B981" stroke-width="2" stroke-linecap="round" stroke-linejoin="round"/>
  </symbol>

  <symbol id="icon-sad" viewBox="0 0 29 29" fill="none">
    <path d="M19.6667 19.6667C19.6667 19.6667 17.6667 17 14.3333 17C11 17 9 19.6667 9 19.6667M10.3333 10.3333H10.3467M18.3333 10.3333H18.3467M27.6667 14.3333C27.6667 21.6971 21.6971 27.6667 14.3333 27.6667C6.96954 27.6667 1 21.6971 1 14.3333C1 6.96954 6.96954 1 14.3333 1C21.6971 1 27.6667 6.96954 27.6667 14.3333Z" stroke="#EF4444" stroke-width="2" stroke-linecap="round" stroke-linejoin="round"/>
  </symbol>

  <symbol id="icon-chevron-down" viewBox="0 0 12 7" fill="none">
    <path d="M1 1L6 6L11 1" stroke="currentColor" stroke-width="2" stroke-linecap="round" stroke-linejoin="round"/>
  </symbol>

</svg>
