<svg xmlns="http://www.w3.org/2000/svg" style="display:none">
  <symbol id="icon-logo" viewBox="0 0 40 40">
    <rect width="40" height="40" rx="10" fill="#2563EB"/>
    <path fill="none" d="M29.4188 18.9224C29.5978 18.8434 29.7498 18.7136 29.8558 18.5492C29.9617 18.3847 30.0172 18.1927 30.0151 17.9971C30.0131 17.8014 29.9537 17.6107 29.8444 17.4484C29.735 17.2862 29.5804 17.1596 29.3998 17.0844L20.8288 13.1804C20.5683 13.0615 20.2852 13 19.9988 13C19.7124 13 19.4294 13.0615 19.1688 13.1804L10.5988 17.0804C10.4208 17.1583 10.2693 17.2865 10.163 17.4492C10.0566 17.6119 10 17.802 10 17.9964C10 18.1907 10.0566 18.3809 10.163 18.5435C10.2693 18.7062 10.4208 18.8344 10.5988 18.9124L19.1688 22.8204C19.4294 22.9392 19.7124 23.0007 19.9988 23.0007C20.2852 23.0007 20.5683 22.9392 20.8288 22.8204L29.4188 18.9224Z" stroke="white" stroke-width="2" stroke-linecap="round" stroke-linejoin="round"/>
    <path fill="none" d="M29.9988 18.0004V24.0004" stroke="white" stroke-width="2" stroke-linecap="round" stroke-linejoin="round"/>
    <path fill="none" d="M13.9988 20.5004V24.0004C13.9988 24.796 14.6309 25.5591 15.7561 26.1217C16.8814 26.6843 18.4075 27.0004 19.9988 27.0004C21.5901 27.0004 23.1162 26.6843 24.2414 26.1217C25.3666 25.5591 25.9988 24.796 25.9988 24.0004V20.5004" stroke="white" stroke-width="2" stroke-linecap="round" stroke-linejoin="round"/>
  </symbol>


<symbol id="icon-explore" viewBox="0 0 49 49">
<path fill="none" d="M47 47L36.125 36.125M42 22C42 33.0457 33.0457 42 22 42C10.9543 42 2 33.0457 2 22C2 10.9543 10.9543 2 22 2C33.0457 2 42 10.9543 42 22Z" stroke="#2563EB" stroke-width="4" stroke-linecap="round" stroke-linejoin="round"/>
</symbol>

<symbol id="icon-learn" viewBox="0 0 54 49">
<path fill="none" d="M17 47H37M27 37V47M7 2H47C49.7614 2 52 4.23858 52 7V32C52 34.7614 49.7614 37 47 37H7C4.23858 37 2 34.7614 2 32V7C2 4.23858 4.23858 2 7 2Z" stroke="#2563EB" stroke-width="4" stroke-linecap="round" stroke-linejoin="round"/>
</symbol>

<symbol id="icon-earn" viewBox="0 0 50 50">
<path d="M15 40L25 32.375L35 40L31.25 27.625L41.25 20.5H29L25 7.5L21 20.5H8.75L18.75 27.625L15 40ZM25 50C21.5417 50 18.2917 49.3437 15.25 48.0312C12.2083 46.7187 9.5625 44.9375 7.3125 42.6875C5.0625 40.4375 3.28125 37.7917 1.96875 34.75C0.65625 31.7083 0 28.4583 0 25C0 21.5417 0.65625 18.2917 1.96875 15.25C3.28125 12.2083 5.0625 9.5625 7.3125 7.3125C9.5625 5.0625 12.2083 3.28125 15.25 1.96875C18.2917 0.65625 21.5417 0 25 0C28.4583 0 31.7083 0.65625 34.75 1.96875C37.7917 3.28125 40.4375 5.0625 42.6875 7.3125C44.9375 9.5625 46.7187 12.2083 48.0312 15.25C49.3437 18.2917 50 21.5417 50 25C50 28.4583 49.3437 31.7083 48.0312 34.75C46.7187 37.7917 44.9375 40.4375 42.6875 42.6875C40.4375 44.9375 37.7917 46.7187 34.75 48.0312C31.7083 49.3437 28.4583 50 25 50Z" fill="#2563EB"/>
</symbol>

<symbol id="icon-star" viewBox="0 0 60 60">
<path d="M20 45L30 37.375L40 45L36.25 32.625L46.25 25.5H34L30 12.5L26 25.5H13.75L23.75 32.625L20 45ZM30 55C26.5417 55 23.2917 54.3437 20.25 53.0312C17.2083 51.7187 14.5625 49.9375 12.3125 47.6875C10.0625 45.4375 8.28125 42.7917 6.96875 39.75C5.65625 36.7083 5 33.4583 5 30C5 26.5417 5.65625 23.2917 6.96875 20.25C8.28125 17.2083 10.0625 14.5625 12.3125 12.3125C14.5625 10.0625 17.2083 8.28125 20.25 6.96875C23.2917 5.65625 26.5417 5 30 5C33.4583 5 36.7083 5.65625 39.75 6.96875C42.7917 8.28125 45.4375 10.0625 47.6875 12.3125C49.9375 14.5625 51.7187 17.2083 53.0312 20.25C54.3437 23.2917 55 26.5417 55 30C55 33.4583 54.3437 36.7083 53.0312 39.75C51.7187 42.7917 49.9375 45.4375 47.6875 47.6875C45.4375 49.9375 42.7917 51.7187 39.75 53.0312C36.7083 54.3437 33.4583 55 30 55Z" fill="#2563EB"/>
</symbol>

<symbol id="icon-dashboard" viewBox="0 0 24 24" fill="none">
<mask id="dashboard-mask-1" fill="white">
<rect width="11.0002" height="7.99998" rx="1"/>
</mask>
<rect width="11.0002" height="7.99998" rx="1" stroke="#2563EB" stroke-width="4" mask="url(#dashboard-mask-1)"/>
<mask id="dashboard-mask-2" fill="white">
<rect x="12.9998" y="16" width="11.0002" height="7.99998" rx="1"/>
</mask>
<rect x="12.9998" y="16" width="11.0002" height="7.99998" rx="1" stroke="#2563EB" stroke-width="4" mask="url(#dashboard-mask-2)"/>
<mask id="dashboard-mask-3" fill="white">
<rect y="9.99998" width="11.0002" height="14" rx="1"/>
</mask>
<rect y="9.99998" width="11.0002" height="14" rx="1" stroke="#2563EB" stroke-width="4" mask="url(#dashboard-mask-3)"/>
<mask id="dashboard-mask-4" fill="white">
<rect x="12.9998" width="11.0002" height="14" rx="1"/>
</mask>
<rect x="12.9998" width="11.0002" height="14" rx="1" stroke="#2563EB" stroke-width="4" mask="url(#dashboard-mask-4)"/>
</symbol>



<symbol id="icon-interactive" viewBox="0 0 30 30">
<path fill="none" d="M6.75716 2.97147L6.8454 5.4723C6.86101 5.91447 6.70032 6.34474 6.39868 6.66843C6.09705 6.99213 5.67919 7.18275 5.23701 7.19835L2.73618 7.28659M17.7412 6.75714L15.2403 6.84538C14.7982 6.86098 14.3679 6.70029 14.0442 6.39866C13.7205 6.09703 13.5299 5.67916 13.5143 5.23699L13.426 2.73616M13.9555 17.7411L13.8673 15.2403C13.8516 14.7981 14.0123 14.3679 14.314 14.0442C14.6156 13.7205 15.0335 13.5299 15.4756 13.5143L17.9765 13.426M2.97149 13.9555L5.47232 13.8672C5.9145 13.8516 6.34476 14.0123 6.66845 14.3139C6.99215 14.6156 7.18277 15.0334 7.19837 15.4756L7.28661 17.9765" stroke="#2563EB" stroke-width="3" stroke-linecap="round" stroke-linejoin="round"/>
<path d="M11.2593 11.2593L18.242 28.0198L20.721 20.721L28.0198 18.242L11.2593 11.2593Z" fill="#2563EB"/>
<path fill="none" d="M21.1358 21.1358L27.0617 27.0617M11.2593 11.2593L18.242 28.0198L20.721 20.721L28.0198 18.242L11.2593 11.2593Z" stroke="#2563EB" stroke-width="3.5" stroke-linecap="round" stroke-linejoin="round"/>
</symbol>

<symbol id="icon-quiz" viewBox="0 0 32 36" fill="none">
<path d="M12.4444 12.4445H24M12.4444 17.7778H24M12.4444 23.1111H24M8 12.4445H8.00889M8 17.7778H8.00889M8 23.1111H8.00889" stroke="#2563EB" stroke-width="3.5" stroke-linecap="round" stroke-linejoin="round"/>
<rect x="1.5" y="1.5" width="29" height="32.5556" rx="3.5" stroke="#2563EB" stroke-width="3"/>
</symbol>


<symbol id="icon-feedback" viewBox="0 0 27 27">
<path fill="none" d="M25.5 17.5C25.5 18.2072 25.219 18.8855 24.719 19.3856C24.2189 19.8857 23.5406 20.1667 22.8333 20.1667H6.83333L1.5 25.5V4.16667C1.5 3.45942 1.78095 2.78115 2.28105 2.28105C2.78115 1.78095 3.45942 1.5 4.16667 1.5H22.8333C23.5406 1.5 24.2189 1.78095 24.719 2.28105C25.219 2.78115 25.5 3.45942 25.5 4.16667V17.5Z" stroke="#2563EB" stroke-width="3" stroke-linecap="round" stroke-linejoin="round"/>
</symbol>

<symbol id="icon-progress" viewBox="0 0 32 32">
<g clip-path="url(#clip-progress)">
<path fill="none" d="M1.33325 16C1.33325 16 6.66658 5.33334 15.9999 5.33334C25.3333 5.33334 30.6666 16 30.6666 16C30.6666 16 25.3333 26.6667 15.9999 26.6667C6.66658 26.6667 1.33325 16 1.33325 16Z" stroke="#2563EB" stroke-width="3" stroke-linecap="round" stroke-linejoin="round"/>
<path fill="none" d="M15.9999 20C18.2091 20 19.9999 18.2091 19.9999 16C19.9999 13.7909 18.2091 12 15.9999 12C13.7908 12 11.9999 13.7909 11.9999 16C11.9999 18.2091 13.7908 20 15.9999 20Z" stroke="#2563EB" stroke-width="3" stroke-linecap="round" stroke-linejoin="round"/>
</g>
<defs><clipPath id="clip-progress"><rect width="32" height="32" fill="white"/></clipPath></defs>
</symbol>

<symbol id="icon-token" viewBox="0 0 32 32">
<path d="M10.6667 24L16.0001 19.9333L21.3334 24L19.3334 17.4L24.6667 13.6H18.1334L16.0001 6.66666L13.8667 13.6H7.33341L12.6667 17.4L10.6667 24ZM16.0001 29.3333C14.1556 29.3333 12.4223 28.9833 10.8001 28.2833C9.17786 27.5833 7.76675 26.6333 6.56675 25.4333C5.36675 24.2333 4.41675 22.8222 3.71675 21.2C3.01675 19.5778 2.66675 17.8444 2.66675 16C2.66675 14.1555 3.01675 12.4222 3.71675 10.8C4.41675 9.17777 5.36675 7.76666 6.56675 6.56666C7.76675 5.36666 9.17786 4.41666 10.8001 3.71666C12.4223 3.01666 14.1556 2.66666 16.0001 2.66666C17.8445 2.66666 19.5779 3.01666 21.2001 3.71666C22.8223 4.41666 24.2334 5.36666 25.4334 6.56666C26.6334 7.76666 27.5834 9.17777 28.2834 10.8C28.9834 12.4222 29.3334 14.1555 29.3334 16C29.3334 17.8444 28.9834 19.5778 28.2834 21.2C27.5834 22.8222 26.6334 24.2333 25.4334 25.4333C24.2334 26.6333 22.8223 27.5833 21.2001 28.2833C19.5779 28.9833 17.8445 29.3333 16.0001 29.3333Z" fill="#2563EB"/>
</symbol>

<symbol id="icon-user" viewBox="0 0 24 24">
<path fill="none" stroke="currentColor" stroke-width="1.5" stroke-linecap="round" stroke-linejoin="round" d="M17.982 18.725A7.488 7.488 0 0 0 12 15.75a7.488 7.488 0 0 0-5.982 2.975m11.963 0a9 9 0 1 0-11.963 0m11.963 0A8.966 8.966 0 0 1 12 21a8.966 8.966 0 0 1-5.982-2.275M15 9.75a3 3 0 1 1-6 0 3 3 0 0 1 6 0Z"/>
</symbol>

<symbol id="icon-lock" viewBox="0 0 24 24">
<path fill="none" stroke="currentColor" stroke-width="1.5" stroke-linecap="round" stroke-linejoin="round" d="M16.5 10.5V6.75a4.5 4.5 0 1 0-9 0v3.75m-.75 11.25h10.5a2.25 2.25 0 0 0 2.25-2.25v-6.75a2.25 2.25 0 0 0-2.25-2.25H6.75a2.25 2.25 0 0 0-2.25 2.25v6.75a2.25 2.25 0 0 0 2.25 2.25Z"/>
</symbol>

<symbol id="icon-eye" viewBox="0 0 24 24">
<path fill="none" stroke="currentColor" stroke-width="1.5" stroke-linecap="round" stroke-linejoin="round" d="M2.036 12.322a1.012 1.012 0 0 1 0-.639C3.423 7.51 7.36 4.5 12 4.5c4.638 0 8.573 3.007 9.963 7.178.07.207.07.431 0 .639C20.577 16.49 16.64 19.5 12 19.5c-4.638 0-8.573-3.007-9.963-7.178Z"/>
<path fill="none" stroke="currentColor" stroke-width="1.5" stroke-linecap="round" stroke-linejoin="round" d="M15 12a3 3 0 1 1-6 0 3 3 0 0 1 6 0Z"/>
</symbol>

<symbol id="icon-eye-off" viewBox="0 0 24 24">
<path fill="none" stroke="currentColor" stroke-width="1.5" stroke-linecap="round" stroke-linejoin="round" d="M3.98 8.223A10.477 10.477 0 0 0 1.934 12C3.226 16.338 7.244 19.5 12 19.5c.993 0 1.953-.138 2.863-.395M6.228 6.228A10.451 10.451 0 0 1 12 4.5c4.756 0 8.773 3.162 10.065 7.498a10.522 10.522 0 0 1-4.293 5.774M6.228 6.228 3 3m3.228 3.228 3.65 3.65m7.894 7.894L21 21m-3.228-3.228-3.65-3.65m0 0a3 3 0 1 0-4.243-4.243m4.242 4.242L9.88 9.88"/>
</symbol>

<symbol id="icon-mail" viewBox="0 0 19 16" fill="none" xmlns="http://www.w3.org/2000/svg">
<path d="M17.6667 2.66667C17.6667 1.75 16.9167 1 16 1H2.66667C1.75 1 1 1.75 1 2.66667M17.6667 2.66667V12.6667C17.6667 13.5833 16.9167 14.3333 16 14.3333H2.66667C1.75 14.3333 1 13.5833 1 12.6667V2.66667M17.6667 2.66667L9.33333 8.5L1 2.66667" stroke="#99A1AF" stroke-width="2" stroke-linecap="round" stroke-linejoin="round"/>
</symbol>


<symbol id="icon-phone" viewBox="0 0 19 19">
<path d="M17.5734 13.4334V15.9334C17.5744 16.1655 17.5268 16.3952 17.4339 16.6079C17.3409 16.8205 17.2045 17.0114 17.0335 17.1683C16.8625 17.3252 16.6606 17.4447 16.4407 17.519C16.2209 17.5934 15.9879 17.621 15.7568 17.6001C13.1925 17.3214 10.7293 16.4452 8.5651 15.0417C6.55162 13.7623 4.84454 12.0552 3.5651 10.0417C2.15675 7.86775 1.2803 5.39258 1.00676 2.81675C0.985939 2.5863 1.01333 2.35405 1.08718 2.13477C1.16104 1.91549 1.27974 1.71399 1.43574 1.5431C1.59173 1.37221 1.7816 1.23567 1.99326 1.14218C2.20491 1.04869 2.43371 1.0003 2.6651 1.00008H5.1651C5.56952 0.9961 5.96159 1.13931 6.26823 1.40302C6.57487 1.66674 6.77516 2.03295 6.83176 2.43341C6.93728 3.23347 7.13297 4.01902 7.4151 4.77508C7.52722 5.07335 7.55148 5.39751 7.48502 5.70915C7.41856 6.02079 7.26415 6.30684 7.0401 6.53341L5.98176 7.59175C7.16806 9.67804 8.89548 11.4055 10.9818 12.5917L12.0401 11.5334C12.2667 11.3094 12.5527 11.155 12.8644 11.0885C13.176 11.022 13.5002 11.0463 13.7984 11.1584C14.5545 11.4405 15.34 11.6362 16.1401 11.7417C16.5449 11.7989 16.9146 12.0028 17.1789 12.3147C17.4432 12.6266 17.5836 13.0247 17.5734 13.4334Z" stroke="#99A1AF" stroke-width="2" stroke-linecap="round" stroke-linejoin="round"/>
</symbol>

  <symbol id="icon-notif-bell" viewBox="0 0 24 24" fill="none">
    <path fill="none" stroke="currentColor" stroke-width="1.5" stroke-linecap="round" stroke-linejoin="round" d="M14.857 17.082a23.848 23.848 0 0 0 5.454-1.31A8.967 8.967 0 0 1 18 9.75V9A6 6 0 0 0 6 9v.75a8.967 8.967 0 0 1-2.312 6.022c1.733.64 3.56 1.085 5.455 1.31m5.714 0a24.255 24.255 0 0 1-5.714 0m5.714 0a3 3 0 1 1-5.714 0"/>
  </symbol>

</svg>
