<svg xmlns="http://www.w3.org/2000/svg" style="display:none">
  <symbol id="icon-logo" viewBox="0 0 40 40">
    <rect width="40" height="40" rx="10" fill="#2563EB"/>
    <path fill="none" d="M29.4188 18.9224C29.5978 18.8434 29.7498 18.7136 29.8558 18.5492C29.9617 18.3847 30.0172 18.1927 30.0151 17.9971C30.0131 17.8014 29.9537 17.6107 29.8444 17.4484C29.735 17.2862 29.5804 17.1596 29.3998 17.0844L20.8288 13.1804C20.5683 13.0615 20.2852 13 19.9988 13C19.7124 13 19.4294 13.0615 19.1688 13.1804L10.5988 17.0804C10.4208 17.1583 10.2693 17.2865 10.163 17.4492C10.0566 17.6119 10 17.802 10 17.9964C10 18.1907 10.0566 18.3809 10.163 18.5435C10.2693 18.7062 10.4208 18.8344 10.5988 18.9124L19.1688 22.8204C19.4294 22.9392 19.7124 23.0007 19.9988 23.0007C20.2852 23.0007 20.5683 22.9392 20.8288 22.8204L29.4188 18.9224Z" stroke="white" stroke-width="2" stroke-linecap="round" stroke-linejoin="round"/>
    <path fill="none" d="M29.9988 18.0004V24.0004" stroke="white" stroke-width="2" stroke-linecap="round" stroke-linejoin="round"/>
    <path fill="none" d="M13.9988 20.5004V24.0004C13.9988 24.796 14.6309 25.5591 15.7561 26.1217C16.8814 26.6843 18.4075 27.0004 19.9988 27.0004C21.5901 27.0004 23.1162 26.6843 24.2414 26.1217C25.3666 25.5591 25.9988 24.796 25.9988 24.0004V20.5004" stroke="white" stroke-width="2" stroke-linecap="round" stroke-linejoin="round"/>
  </symbol>


<symbol id="icon-star" viewBox="0 0 60 60">
<path d="M20 45L30 37.375L40 45L36.25 32.625L46.25 25.5H34L30 12.5L26 25.5H13.75L23.75 32.625L20 45ZM30 55C26.5417 55 23.2917 54.3437 20.25 53.0312C17.2083 51.7187 14.5625 49.9375 12.3125 47.6875C10.0625 45.4375 8.28125 42.7917 6.96875 39.75C5.65625 36.7083 5 33.4583 5 30C5 26.5417 5.65625 23.2917 6.96875 20.25C8.28125 17.2083 10.0625 14.5625 12.3125 12.3125C14.5625 10.0625 17.2083 8.28125 20.25 6.96875C23.2917 5.65625 26.5417 5 30 5C33.4583 5 36.7083 5.65625 39.75 6.96875C42.7917 8.28125 45.4375 10.0625 47.6875 12.3125C49.9375 14.5625 51.7187 17.2083 53.0312 20.25C54.3437 23.2917 55 26.5417 55 30C55 33.4583 54.3437 36.7083 53.0312 39.75C51.7187 42.7917 49.9375 45.4375 47.6875 47.6875C45.4375 49.9375 42.7917 51.7187 39.75 53.0312C36.7083 54.3437 33.4583 55 30 55Z" fill="#2563EB"/>
</symbol>


</svg>
